<svg xmlns="http://www.w3.org/2000/svg" aria-hidden="true" style="position:absolute;width:0;height:0;overflow:hidden">
  <defs>
    <symbol id="icon-logo" viewBox="0 0 39 32">
    <path d="m39.757 17.034-1.33-1.01a1.02 1.02 0 0 0-1.422.142L18.594 37.189l.284.313 4.56-4.18a.7.7 0 0 1-.425-.786.697.697 0 0 1 .699-.558.693.693 0 0 1 .66.485l6.012-5.543a.52.52 0 0 1 .65 0l.305.222a.51.51 0 0 0 .68-.081l7.86-8.764a.837.837 0 0 0-.122-1.263Z"/>
    <path d="M48.41 22.951a41.183 41.183 0 0 1-13.324 6.21 72.637 72.637 0 0 1-14.491 2.14c.098.718.275 1.422.528 2.101 2.762 2.484 23.56-1.757 27.622-6.664.863-1.02-.335-3.787-.335-3.787Zm-24.698 10.37a.694.694 0 0 1-.638-.424.682.682 0 0 1 .15-.748.691.691 0 0 1 .98.974.68.68 0 0 1-.492.198ZM4.062 21.497l.163-.697 2.64.596c.218.4.353.84.396 1.293.05.48.02.964-.091 1.433a3.788 3.788 0 0 1-.874 1.757c-.419.472-.96.821-1.564 1.01a3.728 3.728 0 0 1-1.919.07 3.572 3.572 0 0 1-1.696-.888 3.329 3.329 0 0 1-.965-1.585 3.796 3.796 0 0 1 0-2.02c.11-.494.305-.966.58-1.393a2.96 2.96 0 0 1 1.015-.939l.365.555a2.898 2.898 0 0 0-1.34 1.96 3.133 3.133 0 0 0 .03 1.585c.137.49.407.934.782 1.282.386.37.868.626 1.392.737a2.889 2.889 0 0 0 1.553 0c.487-.16.924-.441 1.27-.818.355-.406.6-.896.71-1.424a3.083 3.083 0 0 0-.121-1.928l-2.326-.586ZM9.81 15.146l-2.367 3.14 1.016 1.808-.467.626-3.758-6.816.437-.596 7.647 1.636-.477.626-2.031-.424Zm-.67-.162-4.063-.908L7.108 17.7l2.031-2.716ZM9.14 8.633l.609-.454 3.87 5.15 3.188-2.373.386.515-3.788 2.817L9.14 8.633ZM15.537 4.423l.68-.303 2.681 5.836 3.626-1.636.264.586-4.306 1.949-2.945-6.432ZM28.922 6.745l.152.636-4.895 1.141-1.624-6.886 4.752-1.1.143.625-4.063.94.58 2.443 3.574-.838.152.626-3.585.828.61 2.554 4.204-.969ZM35.898 6.997l-1.696-2.221c-.189.01-.379.01-.568 0l-1.91.06.072 2.242h-.752L30.811.01l2.7-.01a3.223 3.223 0 0 1 2.154.576 2.224 2.224 0 0 1 .833 1.756c.03.5-.102.995-.376 1.414a2.365 2.365 0 0 1-1.178.858l1.777 2.363-.823.03Zm-.71-3.322a1.605 1.605 0 0 0 .517-1.322 1.618 1.618 0 0 0-.599-1.293 2.478 2.478 0 0 0-1.594-.414l-1.93.07.122 3.535 1.89-.06a2.447 2.447 0 0 0 1.593-.516ZM41.27 5.12l-.365 2.413-.741-.111.376-2.373L38.438 0l.792.121 1.797 4.302L44.074.858l.71.152-3.513 4.11ZM51.314 4.695l.884 1.141-.386.303-.883-1.171-.559 1.323-.426-.182.568-1.323-1.462.192v-.485l1.442-.161-.894-1.141.396-.303.782 1.15.549-1.332.436.182-.518 1.353 1.463-.202v.495l-1.392.161ZM54.706 12.834a2.787 2.787 0 0 1-.437-1.222l.6-.263c.045.4.176.787.386 1.131.226.387.522.73.873 1.01.362.345.824.567 1.32.636a1.114 1.114 0 0 0 .955-.394.908.908 0 0 0 .233-.686 1.852 1.852 0 0 0-.243-.697c-.191-.31-.398-.61-.62-.899a9.176 9.176 0 0 1-.731-1.11 2.011 2.011 0 0 1-.264-.95c0-.374.14-.734.396-1.01.221-.266.513-.465.843-.575a2.042 2.042 0 0 1 1.127 0c.474.155.913.402 1.29.727.312.259.589.558.822.889.216.307.377.649.478 1.01l-.58.303a3.546 3.546 0 0 0-.446-.95 3.652 3.652 0 0 0-.68-.696 2.26 2.26 0 0 0-1.31-.616 1.102 1.102 0 0 0-.955.414.868.868 0 0 0-.234.686c.024.255.108.5.244.717.142.232.345.535.62.899.271.344.516.709.73 1.09.17.29.264.615.275.95 0 .374-.14.734-.396 1.01-.222.27-.519.47-.853.575-.368.11-.76.11-1.127 0-.478-.154-.92-.401-1.3-.727a4.6 4.6 0 0 1-1.016-1.252ZM64.922 14.308l-1.432-2.02.528-.373 3.3 4.685-.528.374-1.432-2.02-5.3 3.686-.427-.616 5.29-3.716ZM62.648 22.608a3.35 3.35 0 0 1 1.015-1.575 3.613 3.613 0 0 1 1.666-.838 3.696 3.696 0 0 1 1.909.07 3.617 3.617 0 0 1 1.554 1.01c.437.5.735 1.106.863 1.757.168.639.168 1.31 0 1.949a3.452 3.452 0 0 1-1.016 1.575 3.776 3.776 0 0 1-3.625.788 3.404 3.404 0 0 1-1.554-1.01 3.788 3.788 0 0 1-.863-1.747 3.867 3.867 0 0 1 .05-1.979Zm1.33 3.21c.34.385.778.668 1.27.819a3.165 3.165 0 0 0 2.944-.646c.375-.343.652-.779.803-1.263a3.232 3.232 0 0 0-.66-2.968 2.896 2.896 0 0 0-1.31-.818 3.064 3.064 0 0 0-1.564 0c-.517.099-.996.34-1.381.697a2.815 2.815 0 0 0-.803 1.272 3.012 3.012 0 0 0 0 1.565c.111.501.353.964.701 1.343ZM61.876 34.331l2.63-1.01c0-.181.06-.363.112-.555l.497-1.828-2.153-.555.193-.717 6.865 1.828-.69 2.554a3.199 3.199 0 0 1-1.178 1.878 2.201 2.201 0 0 1-1.93.283 2.206 2.206 0 0 1-1.245-.762 2.183 2.183 0 0 1-.492-1.368l-2.802 1.01.193-.758Zm3.402.283a1.82 1.82 0 0 0 1.129.878 1.838 1.838 0 0 0 1.42-.202 2.41 2.41 0 0 0 .863-1.423l.487-1.818-3.442-.919-.488 1.818a2.42 2.42 0 0 0 .03 1.666ZM58.23 40.834l-.518-.394 3.046-3.988 5.667 4.27-2.945 3.868-.518-.394 2.488-3.261-2.03-1.525-2.225 2.918-.508-.384 2.275-2.918-2.102-1.585-2.63 3.393ZM55.855 48.881l-1.453.081v-.484l1.453-.01-.782-1.202.396-.253.771 1.212.63-1.353.437.232-.69 1.273 1.451-.081v.495h-1.472l.782 1.201-.396.253-.772-1.212-.67 1.313-.427-.243.742-1.222ZM42.652 48.074l1.228.676a3.144 3.144 0 0 1 2.032-1.595c.403-.126.828-.17 1.249-.132a2.04 2.04 0 0 1 1.015.364c.27.203.47.486.569.808.122.398.1.827-.061 1.211a5.048 5.048 0 0 1-1.016 1.404c.335.179.646.4.925.656.191.197.334.436.416.697a1.335 1.335 0 0 1-.264 1.181 1.95 1.95 0 0 1-1.137.778 1.777 1.777 0 0 1-1.26 0 1.27 1.27 0 0 1-.73-.858 1.366 1.366 0 0 1 .07-1.01c.233-.46.538-.878.904-1.242l-2.447-1.353a4.782 4.782 0 0 0-.061 1.444h-.62a4.8 4.8 0 0 1 .203-1.757l-1.28-.707.265-.566Zm1.767 1.01 2.69 1.484c.354-.335.646-.728.864-1.162a1.276 1.276 0 0 0 0-.908 1.09 1.09 0 0 0-.71-.758 2.042 2.042 0 0 0-1.3 0 2.444 2.444 0 0 0-1.585 1.313l.04.03Zm3.818 4.038a.906.906 0 0 0 .081-.747 1.24 1.24 0 0 0-.325-.525 4.39 4.39 0 0 0-.843-.555 5.276 5.276 0 0 0-.802 1.01c-.123.229-.152.496-.081.746a.847.847 0 0 0 .447.536c.258.097.544.097.802 0 .276-.074.517-.242.68-.475l.041.01ZM30.273 55.859l.142-7.069h.72l-.111 5.655 2.884-4.705h.355l2.702 4.786.101-5.625h.721l-.132 7.069h-.62l-2.985-5.281-3.158 5.18-.62-.01ZM26.738 48.467a3.424 3.424 0 0 1 .924 3.494 3.59 3.59 0 0 1-.964 1.646 3.417 3.417 0 0 1-1.635.889 3.962 3.962 0 0 1-1.97-.061 3.827 3.827 0 0 1-1.706-.919 3.39 3.39 0 0 1-.945-1.595 3.706 3.706 0 0 1 1.016-3.555c.443-.44.997-.754 1.604-.908a3.931 3.931 0 0 1 1.96.06c.646.163 1.237.49 1.716.95Zm-3.462-.353c-.497.115-.951.367-1.31.727-.375.37-.641.834-.772 1.343a2.862 2.862 0 0 0 0 1.545c.12.492.376.94.741 1.292.382.372.855.64 1.371.778.516.13 1.058.13 1.574 0a2.887 2.887 0 0 0 1.32-.727c.372-.372.639-.836.772-1.343a2.891 2.891 0 0 0 0-1.555c-.13-.49-.39-.936-.752-1.293a3.05 3.05 0 0 0-1.38-.767 2.952 2.952 0 0 0-1.564 0ZM15.588 43.419l.274 2.777c.174.073.344.158.507.252l1.656.95 1.117-1.96.66.374-3.554 6.089-2.316-1.323a3.218 3.218 0 0 1-1.523-1.616 2.21 2.21 0 0 1 .223-1.918 2.32 2.32 0 0 1 1.067-1.01c.463-.19.975-.23 1.462-.111l-.294-2.969.72.465Zm-1.158 3.19a1.832 1.832 0 0 0-1.141.86 1.812 1.812 0 0 0-.17 1.412c.239.523.652.948 1.169 1.202l1.635.939 1.777-3.03-1.635-.938a2.518 2.518 0 0 0-1.635-.495v.05ZM9.576 38.683l.457-.454 3.504 3.584-5.078 4.928-3.382-3.474.467-.454 2.874 2.938 1.737-1.747L7.636 41.4l.488-.464 2.569 2.625 1.889-1.828-3.006-3.049ZM2.032 34.715l.243-1.394.478.071-.275 1.434 1.351-.495.163.444-1.371.465 1.127.949-.325.363-1.087-1.01-.254 1.434-.487-.09.284-1.434-1.36.485-.153-.394 1.361-.475L.6 34.13l.335-.363 1.097.949Z"/>    </symbol>
    <symbol id="icon-close" viewBox="0 0 32 32">
      <path d="M23.733 10.304 22.229 8.8l-5.963 5.963L10.303 8.8l-1.504 1.504 5.963 5.963-5.963 5.963 1.504 1.504 5.963-5.963 5.963 5.963 1.504-1.504-5.963-5.963 5.963-5.963z"/>
    </symbol>
    <symbol id="icon-facebook" viewBox="0 0 32 32">
      <path d="M21.33 5.313h2.921V.225C23.747.156 22.014 0 19.995 0c-4.212 0-7.097 2.649-7.097 7.519V12H8.25v5.688h4.648V32h5.699V17.689h4.46l.708-5.688h-5.169V8.082c.001-1.644.444-2.769 2.735-2.769z"/>
    </symbol>
    <symbol id="icon-instagram" viewBox="0 0 32 32">
      <path d="M31.969 9.408c-.075-1.7-.35-2.869-.744-3.882a7.806 7.806 0 0 0-1.851-2.838A7.867 7.867 0 0 0 26.542.844C25.523.45 24.36.175 22.66.1 20.947.019 20.403 0 16.059 0s-4.888.019-6.595.094c-1.7.075-2.869.35-3.882.744a7.803 7.803 0 0 0-2.838 1.85A7.867 7.867 0 0 0 .9 5.52C.506 6.539.231 7.702.156 9.402c-.081 1.713-.1 2.257-.1 6.601s.019 4.888.094 6.595c.075 1.7.35 2.869.744 3.882a7.895 7.895 0 0 0 1.85 2.838 7.867 7.867 0 0 0 2.832 1.844c1.019.394 2.182.669 3.882.744 1.706.075 2.25.094 6.595.094s4.888-.019 6.595-.094c1.7-.075 2.869-.35 3.882-.744a8.184 8.184 0 0 0 4.682-4.682c.394-1.019.669-2.182.744-3.882.075-1.707.094-2.251.094-6.595s-.006-4.888-.081-6.595zm-2.882 13.065c-.069 1.563-.331 2.407-.55 2.969a5.31 5.31 0 0 1-3.038 3.038c-.563.219-1.413.481-2.969.55-1.688.075-2.194.094-6.464.094s-4.782-.019-6.464-.094c-1.563-.069-2.407-.331-2.969-.55a4.926 4.926 0 0 1-1.838-1.194 4.974 4.974 0 0 1-1.194-1.838c-.219-.563-.481-1.413-.55-2.969-.075-1.688-.094-2.194-.094-6.464s.019-4.782.094-6.464c.069-1.563.331-2.407.55-2.969a4.868 4.868 0 0 1 1.2-1.838A4.974 4.974 0 0 1 6.639 3.55c.563-.219 1.413-.481 2.969-.55 1.688-.075 2.194-.094 6.464-.094 4.276 0 4.782.019 6.464.094 1.563.069 2.407.331 2.969.55a4.914 4.914 0 0 1 1.838 1.194 4.974 4.974 0 0 1 1.194 1.838c.219.563.481 1.413.55 2.969.075 1.688.094 2.194.094 6.464s-.019 4.77-.094 6.458z"/>
      <path d="M16.059 7.783c-4.538 0-8.22 3.682-8.22 8.22s3.682 8.22 8.22 8.22c4.539 0 8.22-3.682 8.22-8.22s-3.682-8.22-8.22-8.22zm0 13.552a5.333 5.333 0 0 1 0-10.664 5.333 5.333 0 0 1 0 10.664zM26.524 7.458a1.919 1.919 0 1 1-3.838 0 1.919 1.919 0 0 1 3.838 0z"/>
    </symbol>
    <symbol id="icon-linkedin" viewBox="0 0 32 32">
      <path d="M31.992 32v-.001H32V20.263c0-5.741-1.236-10.164-7.948-10.164-3.227 0-5.392 1.771-6.276 3.449h-.093v-2.913h-6.364v21.364h6.627V21.42c0-2.785.528-5.479 3.977-5.479 3.399 0 3.449 3.179 3.449 5.657v10.401h6.62zM.528 10.636h6.635V32H.528V10.636zM3.843 0C1.722 0 0 1.721 0 3.843s1.721 3.879 3.843 3.879c2.121 0 3.843-1.757 3.843-3.879A3.846 3.846 0 0 0 3.843 0z"/>
    </symbol>
    <symbol id="icon-mail" viewBox="0 0 32 32">
      <path stroke-linecap="round" stroke-linejoin="round" stroke-width="1.333" d="M6.4 6.667h19.2c1.32 0 2.4 1.05 2.4 2.333v14c0 1.283-1.08 2.333-2.4 2.333H6.4C5.08 25.333 4 24.283 4 23V9c0-1.283 1.08-2.333 2.4-2.333z"/>
      <path stroke-linecap="round" stroke-linejoin="round" stroke-width="1.333" d="m26.667 9.333-10.667 8-10.667-8"/>
    </symbol>
    <symbol id="icon-map-pin" viewBox="0 0 32 32">
      <path stroke-linecap="round" stroke-linejoin="round" stroke-width="1.333" d="M26.667 13.818C26.667 21.454 16 28 16 28S5.333 21.455 5.333 13.818C5.333 8.396 10.109 4 16 4s10.667 4.396 10.667 9.818z"/>
      <path stroke-linecap="round" stroke-linejoin="round" stroke-width="1.333" d="M16 18.667a4 4 0 1 0 0-8 4 4 0 0 0 0 8z"/>
    </symbol>
    <symbol id="icon-menu" viewBox="0 0 33 32">
      <path d="M7.165 11.733V9.6h19.198v2.133H7.165zm0 5.334h19.198v-2.133H7.165v2.133zm0 5.333h19.198v-2.133H7.165V22.4z"/>
    </symbol>
    <symbol id="icon-phone" viewBox="0 0 32 32">
      <path stroke-linecap="round" stroke-linejoin="round" stroke-width="1.333" d="M26.666 21.337v3.218a2.146 2.146 0 0 1-2.338 2.145 21.239 21.239 0 0 1-9.257-3.293 20.914 20.914 0 0 1-6.436-6.436 21.221 21.221 0 0 1-3.293-9.3 2.144 2.144 0 0 1 2.134-2.338h3.218a2.144 2.144 0 0 1 2.145 1.845c.136 1.03.388 2.041.751 3.014a2.144 2.144 0 0 1-.483 2.263l-1.362 1.362a17.162 17.162 0 0 0 6.436 6.436l1.362-1.362a2.146 2.146 0 0 1 2.263-.483c.973.363 1.984.615 3.014.751a2.144 2.144 0 0 1 1.845 2.177z"/>
    </symbol>
    <symbol id="icon-twitter" viewBox="0 0 32 32">
      <path d="M32 6.078c-1.19.522-2.458.868-3.78 1.036a6.523 6.523 0 0 0 2.886-3.626 13.11 13.11 0 0 1-4.16 1.588A6.574 6.574 0 0 0 22.154 3c-3.632 0-6.556 2.948-6.556 6.562 0 .52.044 1.02.152 1.496-5.454-.266-10.28-2.88-13.522-6.862a6.605 6.605 0 0 0-.898 3.316 6.57 6.57 0 0 0 2.914 5.452 6.479 6.479 0 0 1-2.964-.808v.072c0 3.188 2.274 5.836 5.256 6.446a6.548 6.548 0 0 1-1.72.216 5.8 5.8 0 0 1-1.242-.112c.85 2.598 3.262 4.508 6.13 4.57a13.182 13.182 0 0 1-8.134 2.798c-.538 0-1.054-.024-1.57-.09A18.469 18.469 0 0 0 10.064 29c12.072 0 18.672-10 18.672-18.668 0-.29-.01-.57-.024-.848A13.087 13.087 0 0 0 32 6.078z"/>
    </symbol>
  </defs>
</svg>
