<svg width="70" height="56" viewBox="0 0 70 56" fill="none" xmlns="http://www.w3.org/2000/svg">
<g clip-path="url(#clip0_1374_368)">
<path d="M46.8017 2.98566L43.8342 0.380138C43.3704 -0.0518158 42.7772 -0.255803 42.1833 -0.187501C41.5895 -0.119199 41.0431 0.215874 40.6629 0.744912L-0.40625 54.9919L0.228024 55.7996L10.399 45.0127C10.0601 44.8558 9.7796 44.5673 9.60637 44.1972C9.43314 43.8272 9.37808 43.3991 9.45077 42.9872C9.52347 42.5753 9.71931 42.2058 10.0043 41.9427C10.2892 41.6797 10.6453 41.5398 11.0106 41.5474C11.3401 41.5473 11.6609 41.6688 11.9259 41.8939C12.1909 42.119 12.3862 42.4359 12.4831 42.798L25.8934 28.4937C26.0987 28.3034 26.3545 28.1996 26.6183 28.1996C26.882 28.1996 27.1378 28.3034 27.3432 28.4937L28.0227 29.0669C28.2527 29.2564 28.5359 29.3401 28.8168 29.3016C29.0976 29.263 29.3558 29.1049 29.5405 28.8585L47.0735 6.24256C47.2599 6.01804 47.402 5.75 47.4903 5.45667C47.5786 5.16334 47.6109 4.85159 47.5851 4.54261C47.5594 4.23362 47.476 3.93465 47.3409 3.66599C47.2057 3.39734 47.0218 3.16531 46.8017 2.98566V2.98566Z" fill="#303030"/>
<path d="M68.0463 17.7996C58.4205 24.9367 47.6371 30.204 36.2151 33.3481C24.8787 36.3525 13.2786 38.1483 1.59375 38.708C1.82903 40.5035 2.25208 42.2669 2.85535 43.9667C9.45451 50.1861 59.1423 39.5675 68.8469 27.2804C70.9092 24.7269 68.0463 17.7996 68.0463 17.7996ZM9.04206 43.7644C8.71577 43.7644 8.3968 43.6636 8.12549 43.4747C7.85418 43.2857 7.64272 43.0172 7.51786 42.7031C7.39299 42.389 7.36032 42.0433 7.42397 41.7098C7.48763 41.3763 7.64476 41.07 7.87549 40.8295C8.10621 40.5891 8.40018 40.4254 8.72021 40.359C9.04023 40.2927 9.37195 40.3268 9.67341 40.4569C9.97487 40.587 10.2325 40.8074 10.4138 41.0901C10.5951 41.3728 10.6919 41.7052 10.6919 42.0452C10.6951 42.2719 10.6547 42.497 10.5729 42.7071C10.4912 42.9172 10.3698 43.1081 10.2159 43.2684C10.0621 43.4288 9.8789 43.5553 9.67726 43.6405C9.47562 43.7257 9.25962 43.7678 9.04206 43.7644V43.7644Z" fill="#303030"/>
</g>
<defs>
<clipPath id="clip0_1374_368">
<rect width="70" height="56" fill="white"/>
</clipPath>
</defs>
</svg>
